<svg width="24" height="24" viewBox="0 0 24 24" fill="none" xmlns="http://www.w3.org/2000/svg">
<path d="M12 2C12.918 2 13.8034 2.11719 14.6562 2.35156C15.5091 2.58594 16.3066 2.92122 17.0488 3.35742C17.791 3.79362 18.4648 4.31445 19.0703 4.91992C19.6758 5.52539 20.1966 6.20247 20.6328 6.95117C21.069 7.69987 21.4043 8.4974 21.6387 9.34375C21.873 10.1901 21.9935 11.0755 22 12C22 12.918 21.8828 13.8034 21.6484 14.6562C21.4141 15.5091 21.0788 16.3066 20.6426 17.0488C20.2064 17.791 19.6855 18.4648 19.0801 19.0703C18.4746 19.6758 17.7975 20.1966 17.0488 20.6328C16.3001 21.069 15.5026 21.4043 14.6562 21.6387C13.8099 21.873 12.9245 21.9935 12 22C11.082 22 10.1966 21.8828 9.34375 21.6484C8.49089 21.4141 7.69336 21.0788 6.95117 20.6426C6.20898 20.2064 5.53516 19.6855 4.92969 19.0801C4.32422 18.4746 3.80339 17.7975 3.36719 17.0488C2.93099 16.3001 2.5957 15.5059 2.36133 14.666C2.12695 13.8262 2.00651 12.9375 2 12C2 11.082 2.11719 10.1966 2.35156 9.34375C2.58594 8.49089 2.92122 7.69336 3.35742 6.95117C3.79362 6.20898 4.31445 5.53516 4.91992 4.92969C5.52539 4.32422 6.20247 3.80339 6.95117 3.36719C7.69987 2.93099 8.49414 2.5957 9.33398 2.36133C10.1738 2.12695 11.0625 2.00651 12 2ZM12 20.75C12.8008 20.75 13.5723 20.6458 14.3145 20.4375C15.0566 20.2292 15.7533 19.9362 16.4043 19.5586C17.0553 19.181 17.6478 18.722 18.1816 18.1816C18.7155 17.6413 19.1712 17.0521 19.5488 16.4141C19.9264 15.776 20.2227 15.0794 20.4375 14.3242C20.6523 13.569 20.7565 12.7943 20.75 12C20.75 11.1992 20.6458 10.4277 20.4375 9.68555C20.2292 8.94336 19.9362 8.24674 19.5586 7.5957C19.181 6.94466 18.722 6.35221 18.1816 5.81836C17.6413 5.28451 17.0521 4.82878 16.4141 4.45117C15.776 4.07357 15.0794 3.77734 14.3242 3.5625C13.569 3.34766 12.7943 3.24349 12 3.25C11.1992 3.25 10.4277 3.35417 9.68555 3.5625C8.94336 3.77083 8.24674 4.0638 7.5957 4.44141C6.94466 4.81901 6.35221 5.27799 5.81836 5.81836C5.28451 6.35872 4.82878 6.94792 4.45117 7.58594C4.07357 8.22396 3.77734 8.92057 3.5625 9.67578C3.34766 10.431 3.24349 11.2057 3.25 12C3.25 12.8008 3.35417 13.5723 3.5625 14.3145C3.77083 15.0566 4.0638 15.7533 4.44141 16.4043C4.81901 17.0553 5.27799 17.6478 5.81836 18.1816C6.35872 18.7155 6.94792 19.1712 7.58594 19.5488C8.22396 19.9264 8.92057 20.2227 9.67578 20.4375C10.431 20.6523 11.2057 20.7565 12 20.75ZM17.8301 12.1562L18.2988 10.75H19.0312L18.2012 13.25H17.4688L17 11.8438L16.5312 13.25H15.7988L14.9688 10.75H15.7012L16.1699 12.1562L16.6387 10.75H17.3613L17.8301 12.1562ZM13.2988 10.75H14.0312L13.2012 13.25H12.4688L12 11.8438L11.5312 13.25H10.7988L9.96875 10.75H10.7012L11.1699 12.1562L11.6387 10.75H12.3613L12.8301 12.1562L13.2988 10.75ZM8.29883 10.75H9.03125L8.20117 13.25H7.46875L7 11.8438L6.53125 13.25H5.79883L4.96875 10.75H5.70117L6.16992 12.1562L6.63867 10.75H7.36133L7.83008 12.1562L8.29883 10.75Z" fill="#9136D9"/>
</svg>
