<svg width="24" height="24" viewBox="0 0 24 24" fill="none" xmlns="http://www.w3.org/2000/svg">
<path d="M12 2.625C10.5082 2.625 9.07742 3.21763 8.02252 4.27252C6.96763 5.32742 6.375 6.75816 6.375 8.25C6.375 11.3573 12 21.84 12 21.84C12 21.84 17.625 11.358 17.625 8.25C17.625 6.75816 17.0324 5.32742 15.9775 4.27252C14.9226 3.21763 13.4918 2.625 12 2.625ZM12 10.938C11.2871 10.938 10.6034 10.6548 10.0993 10.1507C9.5952 9.64661 9.312 8.9629 9.312 8.25C9.312 7.5371 9.5952 6.85339 10.0993 6.3493C10.6034 5.8452 11.2871 5.562 12 5.562C12.7129 5.562 13.3966 5.8452 13.9007 6.3493C14.4048 6.85339 14.688 7.5371 14.688 8.25C14.688 8.9629 14.4048 9.64661 13.9007 10.1507C13.3966 10.6548 12.7129 10.938 12 10.938Z" fill="#9037D9"/>
</svg>
