<svg width="25" height="24" viewBox="0 0 25 24" fill="none" xmlns="http://www.w3.org/2000/svg">
<path d="M16.8206 14.2664C16.8206 15.1425 17.0699 15.4919 17.7217 15.4919C19.1746 15.4919 20.0997 13.6406 20.0997 10.5617C20.0997 5.85586 16.6704 3.60305 12.389 3.60305C7.98456 3.60305 3.97851 6.55674 3.97851 12.1387C3.97851 17.4704 7.48289 20.374 12.8646 20.374C14.6919 20.374 15.9184 20.1738 17.7947 19.548L18.1973 21.224C16.345 21.8258 14.3655 22 12.8396 22C5.78077 22 2 18.1201 2 12.1377C2 6.10513 6.38152 2 12.4141 2C18.6969 2 22.025 5.75469 22.025 10.3604C22.025 14.2653 20.7995 17.2441 16.9447 17.2441C15.1915 17.2441 14.0411 16.5432 13.8909 14.9902C13.4403 16.7174 12.2388 17.2441 10.6108 17.2441C8.43304 17.2441 6.60576 15.5659 6.60576 12.1877C6.60576 8.78348 8.2088 6.68085 11.0874 6.68085C12.6143 6.68085 13.5655 7.2816 13.9889 8.23279L14.7159 6.90613H16.8185V14.2664H16.8206ZM13.7428 10.9622C13.7428 9.58657 12.7155 9.0098 11.8644 9.0098C10.9383 9.0098 9.91301 9.7597 9.91301 11.9635C9.91301 13.7157 10.689 14.6919 11.8644 14.6919C12.6904 14.6919 13.7428 14.1662 13.7428 12.7144V10.9622Z" fill="#9037D9"/>
</svg>
